<svg width="675" height="559" viewBox="0 0 675 559" fill="none" xmlns="http://www.w3.org/2000/svg">
<path fill-rule="evenodd" clip-rule="evenodd" d="M474.179 551.596C365.895 586.69 295.639 485.63 152.62 485.63C103.748 485.63 -14.3844 528.899 3.90645 261.514C14.2858 109.783 126.155 40.9209 230.699 129.606C261.462 148.521 285.749 142.659 312.12 123.865C338.49 105.072 372.405 21.1713 436.325 3.91084C628.681 -48.0315 841.646 432.503 474.179 551.596Z" fill="#FB6F84"/>
<path fill-rule="evenodd" clip-rule="evenodd" d="M470.187 251.652C477.722 256.614 485.288 261.864 493.96 264.356C502.631 266.848 512.822 266.085 519.499 260.018C546.446 235.535 589.841 231.441 620.89 250.453C651.94 269.466 668.022 309.978 658.464 345.11C648.907 380.241 614.518 407.024 578.116 407.687C559.255 408.03 541.814 417.046 523.791 422.619C505.769 428.191 484.093 429.621 469.999 417.083C454.808 403.569 456.542 375.723 473.292 364.199C446.97 366.171 420.648 368.143 394.326 370.115C400.116 372.463 406.28 375.116 409.599 380.409C412.918 385.701 411.396 394.36 405.35 395.933C382.834 401.79 359.779 391.116 338.167 382.502C316.555 373.887 290.512 367.56 271.24 380.594C227.808 409.969 170.428 405.092 118.699 396.526C106.289 394.471 91.3605 389.951 88.7801 377.639C65.028 382.111 40.806 384.082 16.6434 383.509C10.7454 383.369 3.78268 382.441 1.02622 377.225C-2.54537 370.466 3.86605 362.798 10.11 358.388C29.1776 344.92 52.4574 337.511 75.8014 337.479C82.4507 337.47 86.89 330.521 88.5828 324.091C90.2756 317.661 90.7499 310.506 95.0676 305.449C80.385 303.245 64.8305 307.727 53.5721 317.406C51.4825 319.202 47.9554 317.399 47.0783 314.787C46.2012 312.174 47.1048 309.333 48.0325 306.738C53.2273 292.209 59.7405 277.447 71.5469 267.513C83.3533 257.579 101.8 253.996 114.246 263.116C118.15 265.977 124.78 269.649 134.134 274.133C143.725 272.682 150.856 271.528 155.528 270.669C169.677 268.068 182.796 261.643 195.621 255.126C240.312 232.419 286.135 207.138 336.244 205.712C384.18 204.347 430.135 225.277 470.187 251.652ZM520.9 291.017L525.396 302.343C525.617 302.898 525.855 303.479 526.319 303.854C526.883 304.31 527.655 304.371 528.372 304.474C533.868 305.265 538.175 309.439 542.071 313.396C547.06 318.465 552.05 323.534 557.04 328.603C558.535 330.122 561.019 328.48 562.451 326.901C565.668 323.351 568.946 319.709 570.804 315.292C572.661 310.876 572.862 305.459 570.093 301.549C568.448 299.226 565.942 297.659 563.373 296.431C559.133 294.403 554.534 293.132 549.855 292.694C545.293 292.266 540.698 292.626 536.115 292.592C531.009 292.554 525.906 292.026 520.9 291.017Z" fill="white"/>
<path fill-rule="evenodd" clip-rule="evenodd" d="M88.7801 377.639C65.028 382.111 40.806 384.082 16.6434 383.509C9.68999 373.376 84.9349 354.706 87.6633 367.014C89.8207 376.746 89.9195 383.076 88.7801 377.639Z" fill="#E7EAEE"/>
<path fill-rule="evenodd" clip-rule="evenodd" d="M453.175 344.811C455.713 344.539 465.8 342.067 476.39 343.213C482.081 340.291 509.355 342.586 525.636 345.776C536.086 347.823 562.571 349.183 572.189 354.089C588.884 362.605 589.267 367.87 586.755 368.997C579.619 372.2 571.022 373.779 566.401 373.863C558.082 374.015 541.345 366.325 522.986 361.507C514.787 359.356 508.762 357.529 504.014 355.756L504.789 355.416C494.519 360.053 483.895 360.792 473.292 364.199C446.97 366.171 420.648 368.143 394.326 370.115C400.116 372.463 313.009 340.748 338.167 336.121C339.718 335.835 341.427 335.662 343.281 335.584C366.841 334.597 413.652 349.034 453.175 344.811Z" fill="#E7EAEE"/>
<path fill-rule="evenodd" clip-rule="evenodd" d="M218.104 305.659C218.425 306.233 218.182 306.996 217.7 307.443C217.218 307.89 216.555 308.082 215.909 308.204C211.151 309.097 205.951 306.501 203.806 302.161C203.567 301.677 203.358 301.146 203.431 300.611C203.504 300.076 203.953 299.559 204.492 299.591C205.878 301.119 207.283 302.665 209.008 303.796C210.732 304.927 212.841 305.616 214.87 305.243C216.021 305.032 217.532 304.638 218.104 305.659V305.659Z" fill="#00160A"/>
<path fill-rule="evenodd" clip-rule="evenodd" d="M221.223 364.866C221.29 363.526 222.969 362.966 224.31 362.917C230.316 362.694 235.91 365.638 241.458 367.952C247.006 370.265 253.466 371.972 258.884 369.369C260.015 368.825 261.2 368.083 262.427 368.345C260.392 372.293 255.527 374.085 251.093 373.841C246.658 373.598 242.502 371.723 238.414 369.989C234.325 368.255 230.023 366.605 225.589 366.853C224.679 366.903 223.748 367.032 222.871 366.785C221.995 366.537 221.177 365.776 221.223 364.866Z" fill="#00160A"/>
<path fill-rule="evenodd" clip-rule="evenodd" d="M231.738 376.108C227.595 374.899 222.75 375.504 219.347 372.849C218.931 372.525 218.521 372.099 218.504 371.572C218.482 370.833 219.278 370.292 220.017 370.273C220.756 370.254 221.45 370.591 222.144 370.846C224.678 371.777 227.467 371.652 230.112 372.191C234.08 373 237.574 375.262 241.312 376.821C245.049 378.38 249.532 379.178 253.012 377.107C254.416 376.272 256.261 375.025 257.425 376.172C253.636 380.487 247.222 382.286 241.742 380.569C238.252 379.476 235.249 377.132 231.738 376.108Z" fill="#00160A"/>
<path fill-rule="evenodd" clip-rule="evenodd" d="M112.328 332.414C111.662 331.562 111.668 330.326 112.093 329.332C112.518 328.337 113.298 327.541 114.105 326.821C117.934 323.401 123.233 321.086 128.203 322.371C131.928 323.334 134.876 326.127 137.484 328.956C138.6 330.167 139.753 331.902 138.917 333.321C138.024 334.837 135.782 334.517 134.084 334.056C128.814 332.627 123.227 331.785 117.901 332.991C115.969 333.428 113.548 333.975 112.328 332.414V332.414Z" fill="#00160A"/>
<path fill-rule="evenodd" clip-rule="evenodd" d="M198.653 383.765C199.387 384.209 199.286 385.395 198.674 385.996C198.062 386.598 197.16 386.771 196.314 386.916C191.572 387.729 186.831 388.542 182.089 389.355C181.099 389.525 179.992 389.671 179.167 389.099C178.341 388.527 178.317 386.936 179.3 386.729C185.245 385.474 191.237 384.442 197.26 383.636C197.731 383.573 198.245 383.519 198.653 383.765V383.765Z" fill="#00160A"/>
<path fill-rule="evenodd" clip-rule="evenodd" d="M186.553 334.221C185.51 334.608 184.357 333.6 184.217 332.497C184.076 331.393 184.647 330.325 185.308 329.43C188.383 325.265 193.864 323.133 199.002 323.774C204.14 324.414 208.806 327.669 211.505 332.087C211.922 332.769 212.308 333.552 212.15 334.335C211.979 335.183 211.186 335.798 210.347 336.008C209.508 336.218 208.625 336.097 207.772 335.95C204.225 335.336 200.766 334.274 197.215 333.677C193.665 333.08 189.928 332.969 186.553 334.221Z" fill="#00160A"/>
<path fill-rule="evenodd" clip-rule="evenodd" d="M119.505 305.721C119.909 304.539 121.618 304.831 122.843 305.074C126.662 305.832 130.397 303.703 133.71 301.658C134.152 301.385 134.741 301.904 134.731 302.423C134.721 302.943 134.347 303.376 133.982 303.745C130.679 307.084 125.74 309.367 121.274 307.914C120.276 307.59 119.166 306.714 119.505 305.721Z" fill="#00160A"/>
<path fill-rule="evenodd" clip-rule="evenodd" d="M252.149 325.951C250.861 325.705 250.193 324.142 250.434 322.853C250.675 321.563 251.55 320.5 252.376 319.481C255.496 315.633 258.34 311.54 260.581 307.122C262.508 303.322 263.985 299.292 266.151 295.624C272.352 285.128 284.378 278.342 296.568 278.461C291.683 274.964 285.908 272.896 280.058 271.527C261.965 267.293 242.415 269.59 225.795 277.903C223.168 279.217 220.606 280.678 217.866 281.737C216.603 282.226 215.205 282.629 213.911 282.229C212.616 281.828 211.6 280.304 212.202 279.09C212.549 278.391 213.297 277.999 213.997 277.654C221.078 274.16 228.188 270.654 235.693 268.201C252.483 262.714 271.034 262.77 287.791 268.357C293.413 270.231 299.289 273.144 301.723 278.548C302.097 279.377 302.131 280.702 301.232 280.837C291.576 282.293 281.751 285.634 275.086 292.771C266.454 302.014 264.364 316.206 255.003 324.711C254.206 325.435 253.207 326.153 252.149 325.951V325.951Z" fill="#00160A"/>
<path fill-rule="evenodd" clip-rule="evenodd" d="M394.326 370.115C400.116 372.463 406.28 375.116 409.599 380.409C412.918 385.701 411.396 394.36 405.35 395.933C382.834 401.79 359.779 391.116 338.167 382.502C316.555 373.887 290.512 367.56 271.24 380.594C227.808 409.969 170.428 405.092 118.699 396.526C106.289 394.471 91.3605 389.951 88.7801 377.639C65.028 382.111 40.806 384.082 16.6434 383.509C10.7454 383.369 3.78268 382.441 1.02622 377.225C-2.54537 370.466 3.86605 362.798 10.11 358.388C29.1776 344.92 52.4574 337.511 75.8014 337.479C82.4507 337.47 86.89 330.521 88.5828 324.091C90.2756 317.661 90.7499 310.506 95.0676 305.449C80.385 303.245 64.8305 307.727 53.5721 317.406C51.4825 319.202 47.9554 317.399 47.0783 314.787C46.2012 312.174 47.1048 309.333 48.0325 306.738C53.2273 292.209 59.7405 277.447 71.5469 267.513C83.3533 257.579 96.4209 253.808 114.165 261.889C118.812 264.005 125.448 267.765 134.075 273.168C143.609 272.379 150.76 271.546 155.528 270.669C169.677 268.068 182.796 261.643 195.621 255.126C240.312 232.419 286.135 207.138 336.244 205.712C384.18 204.347 430.135 225.277 470.187 251.652C477.722 256.614 485.288 261.864 493.96 264.356C502.631 266.848 512.822 266.085 519.499 260.018C546.446 235.535 589.841 231.441 620.89 250.453C651.94 269.466 668.022 309.978 658.464 345.11C648.907 380.241 614.518 407.024 578.116 407.687C559.255 408.03 541.814 417.046 523.791 422.619C505.769 428.191 484.093 429.621 469.999 417.083C454.808 403.569 456.542 375.723 473.292 364.199C446.97 366.171 420.648 368.143 394.326 370.115ZM546.69 321.555C533.407 308.194 513.589 301.661 494.964 304.503C503.982 301.701 513.645 300.995 522.974 302.456C496.529 264.266 453.85 240.412 410.35 224.116C389.21 216.196 367.195 209.687 344.626 209.188C315.245 208.54 286.61 218.089 259.472 229.367C229.686 241.745 200.874 256.325 172.094 270.889C180.974 270.436 189.974 274.338 195.713 281.129C171.607 271.189 143.054 272.722 120.151 285.185C120.261 280.632 123.9 276.411 128.387 275.632C115.282 264.085 95.1479 261.282 79.3868 268.811C63.6257 276.34 53.1532 293.763 53.8996 311.214C67.2101 300.205 86.408 296.801 102.692 302.562C92.9995 318.735 87.9959 337.681 88.4389 356.531C93.5321 354.386 99.8081 355.395 103.972 359.029C99.3198 359.529 94.6675 360.029 90.0152 360.53C90.2118 362.653 90.4084 364.775 90.605 366.898C95.5278 366.173 100.451 365.447 105.373 364.721C102.205 368.366 97.7379 370.857 92.9723 371.636C92.374 377.7 96.5835 383.422 101.865 386.462C107.146 389.502 113.349 390.408 119.383 391.258C134.422 393.377 149.462 395.496 164.501 397.614C161.013 393.68 160.442 387.347 158.165 382.968C155.216 377.296 150.957 374.986 148.822 367.462C148.086 364.866 146.388 361.211 148.764 359.56C149.762 358.867 151.061 358.84 152.277 358.839C157.241 358.834 162.206 358.828 167.17 358.823C168.775 358.821 170.452 358.837 171.87 359.587C176.167 361.86 174.81 368.572 171.601 372.223C168.392 375.874 163.804 378.79 162.708 383.526C161.582 388.391 164.857 393.434 169.207 395.886C173.556 398.338 178.732 398.753 183.722 398.924C194.24 399.283 204.786 398.796 215.226 397.468C241.507 394.124 269.507 383.415 281.705 359.897C280.967 365.825 277.87 371.427 273.241 375.203C292.388 368.15 314.072 368.229 333.168 375.421C351.278 382.242 368.461 395.415 387.667 393.051C386.844 392.383 386.525 391.23 385.702 390.562C383.461 388.745 380.717 387.414 378.476 385.597C385.324 388.102 392.172 390.607 399.02 393.112C398.242 391.973 399.02 390.823 397.571 389.081C396.123 387.339 392.959 384.231 391.095 381.499C396.281 383.008 400.826 386.608 403.484 391.31C405.7 390.767 407.916 390.225 410.132 389.683C398.881 374.495 383.326 362.533 365.759 355.557C357.236 352.173 346.67 348.122 345.604 339.014C364.761 357.514 392.214 365.406 418.84 365.97C445.466 366.533 471.738 360.483 497.682 354.47C491.742 351.467 486.387 347.315 482 342.31C511.139 358.635 543.742 368.745 577.006 371.769C575.119 368.571 573.232 365.373 571.346 362.175C575.472 362.292 579.328 365.422 580.291 369.436C582.361 368.621 584.43 367.806 586.499 366.991C583.621 364.17 580.743 361.348 577.865 358.526C582.494 357.41 587.689 360.981 588.306 365.703C590.243 364.696 591.842 363.05 592.794 361.085C589.352 358.479 585.91 355.874 582.468 353.269C587.686 353.163 592.922 354.908 597.032 358.124C592.17 346.303 575.717 346.021 564.788 339.391C557.519 334.982 552.684 327.584 546.69 321.555ZM521.948 287.591C528.449 289.167 535.256 287.946 541.945 287.966C548.876 287.987 555.779 289.361 562.273 291.783C566.281 293.277 570.288 295.285 572.894 298.678C577.025 304.056 576.665 311.857 573.783 317.995C570.901 324.134 565.914 328.986 561.032 333.693C571.28 338.265 581.528 342.837 591.776 347.409C594.672 348.7 597.802 350.216 599.126 353.097C601.415 358.079 596.971 363.544 592.406 366.58C578.165 376.052 558.797 377.214 543.525 369.512C533.728 364.571 522.867 362.214 512.14 359.904C506.283 358.643 500.183 357.382 494.365 358.809C490.236 359.822 486.343 362.17 482.094 362.025C478.297 361.896 475.345 365.175 473.12 368.255C465.799 378.387 459.763 391.335 464.05 403.078C466.997 411.152 474.466 416.968 482.605 419.728C490.745 422.488 499.542 422.566 508.12 422.02C518.855 421.336 529.792 419.633 539.22 414.452C545.358 411.078 550.852 406.243 557.642 404.522C565.789 402.457 574.372 405.228 582.754 404.616C589.429 404.128 595.746 401.515 601.857 398.788C616.786 392.125 631.717 384.259 642.306 371.805C658.096 353.232 661.851 326.017 654.306 302.836C646.762 279.655 628.933 260.597 607.595 248.808C601.728 245.568 595.551 242.814 589.047 241.196C573.433 237.313 556.343 240.371 542.698 248.896C535.673 253.286 529.569 259.005 522.685 263.613C515.802 268.221 507.71 271.771 499.465 270.966C505.819 277.987 512.744 285.36 521.948 287.591ZM30.4965 351.082C20.9323 354.81 11.3624 359.758 5.30079 368.043C8.08976 366.506 11.5918 366.335 14.5169 367.594C12.3846 368.648 10.2523 369.701 8.11993 370.755C6.92539 371.345 5.69062 371.967 4.86098 373.01C4.03133 374.052 3.73132 375.644 4.53452 376.707C5.33772 377.77 7.36909 377.672 7.75764 376.398C9.18326 371.722 14.6884 368.733 19.3866 370.084C15.858 372.094 12.0049 374.516 11.0285 378.458C11.5561 380.234 14.1565 380.526 15.6849 379.479C17.2132 378.432 17.976 376.617 18.8549 374.986C19.7339 373.355 21.0104 371.686 22.8436 371.417C23.2305 371.361 23.6727 371.39 23.9413 371.674C24.4096 372.17 24.023 372.979 23.5824 373.499C22.5841 374.677 21.31 375.709 20.8192 377.173C20.3284 378.637 21.2055 380.684 22.7468 380.59C44.3894 379.268 65.9911 377.279 87.511 374.626C88.2887 372.941 85.926 371.573 84.0878 371.324C79.4217 370.691 74.6218 371.065 70.1098 372.412C70.9433 369.638 73.744 367.823 76.5926 367.303C79.4412 366.782 82.3646 367.317 85.2107 367.851C85.2329 365.852 84.8598 363.85 84.1192 361.993C79.5941 361.898 75.1087 360.387 71.4491 357.724C74.508 356.579 78.0616 356.84 80.9207 358.419C82.286 359.172 83.3034 356.966 83.3259 355.407C83.3991 350.339 83.4724 345.271 83.5456 340.203C65.4177 340.798 47.3954 344.494 30.4965 351.082ZM528.372 304.474C533.868 305.265 538.175 309.439 542.071 313.396C547.06 318.465 552.05 323.534 557.04 328.603C558.535 330.122 561.019 328.48 562.451 326.901C565.668 323.351 568.946 319.709 570.804 315.292C572.661 310.876 572.862 305.459 570.093 301.549C568.448 299.226 565.942 297.659 563.373 296.431C559.133 294.403 554.534 293.132 549.855 292.694C545.293 292.266 540.698 292.626 536.115 292.592C531.009 292.554 525.906 292.026 520.9 291.017C522.399 294.793 523.898 298.568 525.396 302.343C525.617 302.898 525.855 303.479 526.319 303.854C526.883 304.31 527.655 304.371 528.372 304.474Z" fill="#00160A"/>
</svg>
