<svg width="318" height="191" viewBox="0 0 318 191" fill="none" xmlns="http://www.w3.org/2000/svg">
<mask id="mask0_1_8" style="mask-type:luminance" maskUnits="userSpaceOnUse" x="0" y="0" width="318" height="192">
<path d="M317.244 0H0V191.01H317.244V0Z" fill="white"/>
</mask>
<g mask="url(#mask0_1_8)">
<path d="M295.458 64.031L253.38 21.953C253.354 21.927 253.326 21.903 253.3 21.877C253.274 21.851 253.243 21.816 253.213 21.786C240.934 9.50816 224.746 1.91262 207.455 0.31546C190.164 -1.2817 172.86 3.22017 158.539 13.041C144.218 3.22017 126.914 -1.2817 109.623 0.31546C92.3317 1.91262 76.1443 9.50816 63.865 21.786L21.787 63.863C8.67706 76.9763 0.937431 94.5133 0.0851992 113.036C-0.767032 131.559 5.32957 149.733 17.18 163.995C29.0305 178.256 45.7802 187.578 64.1461 190.132C82.512 192.686 101.17 188.289 116.462 177.802C128.844 186.293 143.505 190.839 158.518 190.844C173.532 190.848 188.195 186.31 200.582 177.826C215.856 188.378 234.524 192.836 252.918 190.326C271.312 187.815 288.102 178.518 299.991 164.259C311.879 150 318.005 131.811 317.167 113.266C316.328 94.7201 308.585 77.1585 295.458 64.031ZM93.613 156.731C84.114 161.268 73.317 162.3 63.1302 159.646C52.9435 156.993 44.0228 150.823 37.9448 142.228C31.8669 133.633 29.0229 123.167 29.9156 112.678C30.8082 102.189 35.38 92.3532 42.823 84.909L84.9 42.831C91.431 36.3086 99.821 31.9678 108.918 30.4049C118.015 28.842 127.373 30.1335 135.706 34.102L105.942 63.863C94.5278 75.218 87.1385 89.9931 84.9 105.937C84.4072 109.423 84.1585 112.939 84.156 116.46C84.1263 130.379 88.0296 144.023 95.416 155.821C94.82 156.139 94.219 156.441 93.613 156.728V156.731ZM190.097 148.021C181.718 156.345 170.381 161.007 158.57 160.988C146.759 160.968 135.438 156.267 127.086 147.916C118.735 139.564 114.034 128.243 114.014 116.432C113.995 104.621 118.657 93.2844 126.981 84.905L158.539 53.347L190.097 84.905C198.452 93.2811 203.144 104.629 203.144 116.46C203.144 128.29 198.452 139.638 190.097 148.014V148.021ZM274.419 148.188C267.857 154.733 259.423 159.076 250.284 160.617C241.145 162.158 231.753 160.82 223.408 156.788C222.808 156.499 222.214 156.196 221.627 155.879C229.036 144.068 232.952 130.402 232.922 116.46C232.919 112.939 232.671 109.423 232.178 105.937C229.94 89.9931 222.55 75.218 211.136 63.863L181.554 34.282L181.387 34.115C189.716 30.1483 199.069 28.8559 208.162 30.4151C217.255 31.9744 225.642 36.3089 232.174 42.824C232.204 42.854 232.232 42.886 232.261 42.916C232.29 42.946 232.315 42.966 232.341 42.992L274.222 84.873L274.422 85.073C282.791 93.443 287.493 104.795 287.493 116.631C287.493 128.467 282.791 139.819 274.422 148.189L274.419 148.188Z" fill="url(#paint0_linear_1_8)"/>
</g>
<defs>
<linearGradient id="paint0_linear_1_8" x1="86.9292" y1="188.908" x2="159.466" y2="-12.7974" gradientUnits="userSpaceOnUse">
<stop stop-color="#fb7185"/>
<stop offset="1" stop-color="#2A9D90"/>
</linearGradient>
</defs>
</svg>
